<?xml version="1.0" encoding="utf-8"?>
<!-- Generator: Adobe Illustrator 19.0.0, SVG Export Plug-In . SVG Version: 6.00 Build 0)  -->
<svg version="1.1" id="_x39_af98f83-10c5-4067-bc84-20554b2827d8"
	 xmlns="http://www.w3.org/2000/svg" xmlns:xlink="http://www.w3.org/1999/xlink" x="0px" y="0px"
	 viewBox="-770 455.9 1009.5 789.9" style="enable-background:new -770 455.9 1009.5 789.9;" xml:space="preserve">
<style type="text/css">
	.st0{opacity:0.1;fill:#6C63FF;enable-background:new    ;}
	.st1{opacity:0.1;fill:#04D9D9;enable-background:new    ;}
	.st2{fill:url(#SVGID_1_);}
	.st3{fill:#EFB7B9;}
	.st4{opacity:0.1;enable-background:new    ;}
	.st5{fill:#DCE6F2;}
	.st6{fill:#965D7B;}
	.st7{opacity:0.1;}
	.st8{fill:#444053;}
	.st9{fill:#A36468;}
	.st10{fill:#04D9D9;}
	.st11{opacity:5.000000e-002;enable-background:new    ;}
	.st12{fill:#05C1BC;}
	.st13{opacity:0.1;fill:#FFFFFF;enable-background:new    ;}
	.st14{opacity:0.4;fill:#04D9D9;enable-background:new    ;}
	.st15{opacity:0.41;fill:#04D9D9;enable-background:new    ;}
	.st16{fill:#A8A8A8;}
	.st17{opacity:0.2;enable-background:new    ;}
</style>
<title>empty</title>
<ellipse class="st0" cx="-415.9" cy="1197.1" rx="176.1" ry="33.4"/>
<path class="st1" d="M-183.4,567.3c-64.7-2.2-126.4-23.1-185.2-46c-58.9-22.9-117.2-48.2-180.3-60.3c-40.6-7.8-87.1-8.9-119.8,12.9
	c-31.5,21-41.7,57.1-47.2,90.7c-4.1,25.3-6.5,51.9,4.7,75.5c7.8,16.4,21.7,30.2,31.4,46c33.5,54.7,9.8,122.2-26.5,175.6
	c-17,25.1-36.8,49-49.9,75.7c-13.1,26.6-19.2,57.3-7.7,84.5c11.4,27,38.5,47.2,67.9,61.5c59.7,29,130,37.2,198.6,41.9
	c151.8,10.4,304.5,5.9,456.7,1.4c56.3-1.7,112.9-3.3,168.3-12.1c30.8-4.8,62.6-12.5,84.9-31.1c28.4-23.5,35.4-63.4,16.4-92.9
	c-31.9-49.5-120-61.8-142.3-114.9c-12.3-29.2,0.3-61.8,18.2-88.9c38.2-58.2,102.3-109.2,105.7-175.7c2.3-45.7-28.5-91.4-76.1-113
	c-49.9-22.7-119.2-19.8-156,17.7C-59.6,554.4-126.3,569.3-183.4,567.3z"/>
<linearGradient id="SVGID_1_" gradientUnits="userSpaceOnUse" x1="-451.9107" y1="758.2795" x2="-139.65" y2="758.2795" gradientTransform="matrix(1 0 0 -1 -95.23 1647.4801)">
	<stop  offset="0" style="stop-color:#808080;stop-opacity:0.25"/>
	<stop  offset="0.54" style="stop-color:#808080;stop-opacity:0.12"/>
	<stop  offset="1" style="stop-color:#808080;stop-opacity:0.1"/>
</linearGradient>
<path class="st2" d="M-234.9,817.6l-30.6-20.6l0,0l15.5-23l-80.9-6.5L-360,790l-36.4-20.4l-30.4,3.6l-0.4-8
	c-0.4-8.3-1.2-16.7-2.5-24.9c0.1-2.5,0.2-5.4,0.2-8.5c0-13.2-1.8-30.6-9.6-42.2l1.8-16.2l-14.6-17.3c2.3-4.7,5-9.2,8-13.5
	c0.5-0.7,1-1.4,1.5-2.1c19-1.4,33.9-17,33.9-36c0-0.9,0-1.8-0.1-2.6c0-0.4-0.1-0.7-0.1-1.1c1.9,1,3.7,2,5.6,3c0.4,0.5,0.8,1,1.2,1.6
	l0,0l0.1,0.1l0.6,0.7l0.2,0.2c0.2,0.2,0.4,0.5,0.6,0.7l0.1,0.2c0.5,0.6,1.1,1.2,1.7,1.8c0.1,0.1,0.1,0.1,0.2,0.2l0.8,0.7l0.2,0.2
	c0.6,0.6,1.3,1.1,2,1.6l0.2,0.2l0.9,0.6l0.3,0.2c0.3,0.2,0.7,0.4,1,0.6l0.1,0.1c0.4,0.2,0.8,0.4,1.2,0.6l0.2,0.1
	c0.3,0.1,0.7,0.3,1,0.4l0.3,0.1c0.4,0.1,0.7,0.2,1,0.3l0.2,0.1c0.4,0.1,0.9,0.2,1.3,0.3h0c0.4,0.1,0.9,0.1,1.3,0.1h0.3
	c0.4,0,0.8,0,1.1,0h0.3c0.5,0,1-0.1,1.4-0.2c2.2-0.3,4.4-1.1,6.3-2.3c0.5-0.3,0.9-0.7,1.3-1.2c2-2.6-0.2-5.5-0.2-5.5l0,0
	c-0.8-1.9-5.8-3.2-5.8-3.2s-16-6.7-16-12s-4-32.9-45.3-39.2c0,0-26.9-1.5-34.4,12.9l-0.2,1.7c-2.2,1.4-4.1,4.2-6.3,5
	c-0.9,0.2-1.9,0.5-2.7,1v-0.2l0,0c-0.3,0.2-0.5,0.5-0.6,0.8c-0.5,0.9-0.8,2-0.8,3c-0.2,1.3-0.7,2.5-1.3,3.6
	c-0.2,0.3-0.4,0.6-0.6,0.9l0,0l-0.2,0.3c1.2,0.1,2.3-0.1,3.4-0.6c-0.2,1.4-0.5,2.7-1,4c1.3,0,2.5-0.7,3.1-1.8v-0.1l0.1-0.2
	c0.3-0.5,0.5-0.9,0.6-1.5l-0.1,0.1c0.2-0.6,0.4-1.3,0.6-1.9c0.1-0.4,0.3-0.7,0.5-1c0.5-0.5,1.3-0.8,2.1-0.7l-0.4,8.7h0.2
	c-0.2,0.6-0.5,1.2-0.9,1.8c-1.4,2.3-4,3.9-5,6.4c-0.4,1.2-0.6,2.5-0.5,3.8c0,0.8,0.1,1.5,0.1,2.3v-0.1c0.1,2,0.2,3.9-0.9,5.5
	c-0.7,1.1-1.9,1.9-2.3,3.2c-0.1,0.3-0.2,0.7-0.1,1.1c0.1,1.1,0.3,2.2,0.7,3.2c0,0,0,0,0-0.1c0.2,0.8,0.3,1.6,0.2,2.4
	c-0.5,2-2.9,3.7-2.8,5.6c0,0.3,0,0.5,0.1,0.7c0.5,0.9,1.3,1.6,2.3,2c1.5,0.9,3.3,1.3,5.1,1.1c0.7-0.1,1.3-0.3,1.9-0.6
	c-0.7,1.6-1.4,3.2-2.1,4.7c-0.1,0.2-0.2,0.5-0.4,0.7c0,0-6.2-4.1-9.7,4.3c-1,1.7-1.8,3.7-2.2,5.6c-0.2,0.8-0.4,1.6-0.7,2.3
	c-1.6,2.6-3.9,4.7-6.7,6c-7.2,3.3-36.1,39.3-36.6,48.7c-0.3,3.6-0.9,7.3-1.8,10.8c-2.3,8.3-2.9,17-1.7,25.5c0.4,2.8,0.9,5.5,1.8,8.1
	c3.1,9.3,5.1,26.7,5.1,26.7l3.3,30.2c-0.1,4.2,0.1,8.3,0.5,12.5c-3.4,3.9-17,20-11.8,24.4c4,3.5,11,2.9,14.9,2.2
	c-3.3,8.2-8.5,22.4-9.2,32.2c-1,14.5,1.7,33.6,6,41c4.3,7.4,18.6,26.2,18.6,26.2s-0.7,25.9,4.4,35.3c5.1,9.4,7.2,28.9,7.2,28.9
	s4.8,16.5,2.4,22.5s4.4,11.1-2.7,15.1s-16.3,94.9-16.3,94.9s-3.7,59.5,0,62.6c0.2,0.1,0.4,0.3,0.6,0.4v20c0,0-2.6,4.2,7.9,5
	c7.1,0.6,27.3,1.9,39.3,2.6l9.3,0.6c0,0,22,4.4,31.7,0s27-4.3,24.4-15.8c-0.3-1.6-0.8-3.1-1.4-4.6c-2.8-7.2-7.6-8-16.4-10
	c-0.5-0.1-1-0.2-1.5-0.3c-9.3-1.6-12.3,2.7-17.5-2.9c-4.5-4.8-18.9-10.3-23.8-12c0.1-0.4,0.3-0.7,0.4-1.1c-1.4-0.2-2.7-0.9-3.7-1.8
	l13.3,0.8l7.9,0.5c0,0,18.7,3.7,27,0s22.9-3.6,20.7-13.5c-0.3-1.3-0.7-2.7-1.1-3.9c-2.4-6.1-6.5-6.8-13.9-8.5
	c-0.4-0.1-0.8-0.2-1.2-0.3c-7.9-1.4-10.5,2.3-14.9-2.5c-3.8-4.1-15.7-8.6-20-10.2c0-2.2-3-5.4-4.9-8.5c-2.2-3.7,1.9-16.7,1.9-16.7
	l2.3-53.7c0.9-0.4,1.8-0.7,2.8-0.8c0,0,10.6-10.1,8.2-20.9c-0.5-3.3-0.7-6.5-0.8-9.8c3.5-3.2,8.3-8,9.6-10.9c2.2-4.8,0-28,0-28
	v-88.8l17.7,1.8l16.1,1.7l4.9,0.5l16.1,1.6l36.9,3.7l33.3-6.3l14.4-2.7l29.6-5.6v-72.4L-234.9,817.6z M-478.5,577.7l-2.1-0.2
	C-479.9,577.5-479.2,577.6-478.5,577.7z"/>
<path class="st3" d="M-306.7,864.6c-10,14.3-46,6.7-46,6.7l-27.9-26.1l-3.8-3.5l6.3-13.4c0,0,2,0.5,5.4,1.5
	C-354.5,835.1-298.2,852.6-306.7,864.6z"/>
<path class="st4" d="M-372.5,829.9c-1.2,4.3-4.6,10.7-8,15.4l-3.8-3.5l6.3-13.4C-377.9,828.4-375.9,828.9-372.5,829.9z"/>
<path class="st5" d="M-468.1,679.3c0,0-25.7,11.4-24.4,39.4c0.9,18,2.9,36,5.9,53.8c0,0-5.3,42.1,16.6,52.9
	c21.9,10.8,42.1,19.8,42.1,19.8s34.2,3.7,38.5,5.2s17.5-21.7,15.1-25.3s-33.8-11.2-37.8-17.3c-4-6-13.3-9.8-13.3-9.8
	s-9.5-5.8-10.2-11c-0.7-5.2,1.9-9.1,2.5-11.4c0.6-2.3,2.3-24.4,2.3-24.4S-420.1,672.4-468.1,679.3z"/>
<path class="st4" d="M-451.1,771.2c0,0-35.2,5.9-31.8,18.2C-483,789.5-470.2,776.1-451.1,771.2z"/>
<path class="st4" d="M-450.9,776.2c0,0-19.4,15.8-15.6,16.6S-450.9,776.2-450.9,776.2z"/>
<path class="st4" d="M-441.6,781.7c0,0-5.2,10.6-2,9.9C-440.4,790.9-441.6,781.7-441.6,781.7z"/>
<path class="st4" d="M-371.2,831l-2.1-0.6c0.6-2,0.8-3.6,0.3-4.4c-2.5-3.6-33.8-11.2-37.8-17.3s-13.3-9.8-13.3-9.8s-9.5-5.8-10.2-11
	c-0.7-5.2,1.9-9.1,2.5-11.4c0.6-2.3,2.3-24.4,2.3-24.4s10.8-78.7-37.2-71.9c0,0-25.7,11.4-24.4,39.4c0.9,18,2.9,36,5.9,53.8
	c0,0-5.3,42.1,16.6,52.9c21.9,10.8,42.1,19.8,42.1,19.8s34.2,3.7,38.5,5.2c1.6,0.6,4.5-2.4,7.4-6.5l1.6,1.5l27.9,26.1
	c0,0,36,7.6,46-6.7C-296.9,853.7-353.2,836.3-371.2,831z"/>
<path class="st6" d="M-482.9,574.3c-1,0.2-1.9,0.6-2.8,1.1c-1,0.8-1,2.3-1.3,3.5c-0.3,1.7-1,3.4-2,4.8c1.1,0.1,2.3-0.1,3.3-0.6
	c-0.2,1.4-0.5,2.7-1,4c1.3,0,2.4-0.7,3-1.8c0.5-1.1,0.9-2.3,1.3-3.5c0.1-0.4,0.3-0.7,0.5-1c0.9-1.1,2.6-0.6,4-0.5
	c2.4,0.2,4.7-0.9,6.1-2.9c1.5-2.3,1.6-8.2-2-8.8C-477.5,568-479.8,573.1-482.9,574.3z"/>
<g class="st7">
	<path d="M-485.7,576.6c0.1-0.5,0.1-1,0.3-1.5l0,0c-1,0.8-1,2.2-1.3,3.5c-0.1,0.7-0.3,1.4-0.6,2.1C-486.5,579.4-486,578-485.7,576.6
		z"/>
	<path d="M-485.4,584.8c0.5-1.3,0.8-2.6,1-4c-1,0.4-2.1,0.6-3.2,0.5c-0.3,0.7-0.7,1.4-1.1,2c1.1,0.1,2.3-0.1,3.3-0.5
		c-0.2,1.4-0.5,2.7-1,4c1.3,0,2.4-0.7,3-1.8c0.2-0.5,0.5-0.9,0.6-1.4C-483.4,584.4-484.4,584.9-485.4,584.8z"/>
	<path d="M-476.6,578c-1.4-0.1-3.1-0.6-4.1,0.5c-0.2,0.3-0.4,0.6-0.5,1c-0.1,0.3-0.2,0.5-0.2,0.8c1-0.8,2.5-0.4,3.8-0.2
		c2.4,0.2,4.7-0.9,6.1-2.9c0.3-0.5,0.5-1,0.7-1.6C-472.3,577.3-474.4,578.2-476.6,578z"/>
</g>
<polygon class="st5" points="-452.8,656.9 -437.5,675.2 -439.5,693.7 -457.9,664.9 "/>
<polygon class="st4" points="-437.5,675.2 -439.4,692.6 -439.5,693.7 -456.1,667.7 -457.9,664.9 -457.4,664 -452.8,656.9 
	-451.7,658.1 "/>
<path class="st3" d="M-429.6,632c-5.2,1.5-10.1,6.6-14.4,12.7c-2.9,4.3-5.5,8.7-7.8,13.3c-1.4,2.8-2.6,5.5-3.7,7.9l-0.7,1.7
	c-1.7,4.1-2.7,6.9-2.7,6.9s-39.5-29.7-33.3-31.7c2.1-0.7,4.9-5.2,7.6-10.8l0.3-0.7c1.7-3.6,3.4-7.7,4.9-11.5
	c3.1-7.8,5.4-14.7,5.4-14.7S-413.9,627.5-429.6,632z"/>
<path class="st8" d="M-406,603.4c0,0,9.1,16.5,21.4,14.3s7.2-8.9,7.2-8.9L-406,603.4z"/>
<path class="st9" d="M-423.6,1174.6c-8.1,3.7-26.4,0-26.4,0l-7.7-0.5c-10-0.6-26.7-1.7-32.7-2.2c-8.6-0.7-6.5-4.3-6.5-4.3v-21.4
	l41.9-10.6c0,0,16.6,5.7,21.1,10.6c4.3,4.7,6.8,1.1,14.5,2.4c0.4,0.1,0.8,0.2,1.2,0.3c7.3,1.7,11.3,2.3,13.6,8.4
	c0.5,1.3,0.8,2.6,1.1,3.9C-401.2,1171-415.6,1170.9-423.6,1174.6z"/>
<path class="st4" d="M-404.5,1157.3c-1.5,0.9-3.1,1.7-4.7,2.4c-5.5,2.5-10.7,5.6-16.3,7.9s-11.5,4.1-17.6,3.6
	c-3.1-0.2-6.4-1-9.4-0.1c-1.9,0.7-3.6,1.7-5.2,2.9c-10-0.6-26.7-1.7-32.7-2.2c-8.6-0.7-6.5-4.3-6.5-4.3v-2.5c0.3,0,0.7-0.1,1.1-0.1
	c2.1,0,4.1,0.3,6.1,0.9c4.3,1.2,8.7,2.3,13,3.5c0.7-2.7,2.5-5,5-6.4c2.5-1.3,5.3-2,8.1-1.8c6.7,0.1,13.1,3.3,19.8,3.6
	c1.9,0.2,3.8-0.1,5.5-0.9c0.9-0.5,1.7-1.1,2.6-1.6c1.4-0.7,3-1.2,4.5-1.5c4.4-1.1,8.7-2.5,13-4.2c1.2-0.5,2.6-1.3,2.4-2.6
	c-0.2-1.7-2.9-1.9-3.6-3.5c-0.3-0.6-0.2-1.2,0.1-1.8c0.4,0.1,0.8,0.2,1.2,0.3C-410.8,1150.6-406.9,1151.3-404.5,1157.3z"/>
<path class="st9" d="M-432.2,1221.4c-9.5,4.3-31,0-31,0l-9-0.5c-11.7-0.8-31.5-2-38.4-2.6c-10.2-0.8-7.7-5-7.7-5V1188l49.3-12.5
	c0,0,19.5,6.7,24.8,12.5c5.1,5.5,8,1.3,17.1,2.9c0.5,0.1,0.9,0.2,1.4,0.3c8.6,2,13.3,2.8,16,9.9c0.6,1.5,1,3,1.3,4.6
	C-405.9,1217.1-422.7,1217-432.2,1221.4z"/>
<path class="st4" d="M-409.7,1201.1c-1.8,1.1-3.6,2.1-5.5,2.8c-6.5,3-12.6,6.6-19.2,9.3s-13.6,4.8-20.7,4.3c-3.7-0.3-7.5-1.2-11-0.1
	c-2.2,0.9-4.3,2-6.1,3.4c-11.7-0.8-31.5-2-38.4-2.6c-10.2-0.8-7.7-5-7.7-5v-2.9c0.4-0.1,0.8-0.1,1.3-0.1c2.4,0,4.9,0.3,7.2,1.1
	l15.3,4.1c0.9-3.2,3-5.9,5.9-7.5c2.9-1.6,6.2-2.3,9.5-2.2c7.9,0.1,15.4,3.9,23.3,4.2c2.2,0.2,4.4-0.2,6.4-1.1c1.1-0.5,2-1.3,3.1-1.9
	c1.7-0.8,3.5-1.4,5.3-1.8c5.2-1.3,10.2-2.9,15.2-4.9c1.4-0.6,3.1-1.6,2.9-3.1c-0.3-2-3.4-2.2-4.2-4.1c-0.3-0.7-0.2-1.4,0.1-2.1
	c0.5,0.1,0.9,0.2,1.4,0.3C-417.1,1193.2-412.4,1193.9-409.7,1201.1z"/>
<path class="st8" d="M-453.7,1048.4l-2.7,62.8c0,0-4,12.8-1.8,16.5c2.2,3.7,5.8,7.3,4.5,9.5c-1.3,2.2-17.3,25.6-22.5,16.6
	s-10.3-48-10.3-48l4.8-48.2L-453.7,1048.4z"/>
<path class="st8" d="M-442.1,891.8l7.4,9.9V988c0,0,2.2,23,0,27.8s-13.2,14.3-13.2,14.3l-9.3-47.5l2-50.3L-442.1,891.8z"/>
<path class="st4" d="M-453.7,1048.4l-2.7,62.8c0,0-4,12.8-1.8,16.5c2.2,3.7,5.8,7.3,4.5,9.5c-1.3,2.2-17.3,25.6-22.5,16.6
	s-10.3-48-10.3-48l4.8-48.2L-453.7,1048.4z"/>
<path class="st4" d="M-442.1,891.8l7.4,9.9V988c0,0,2.2,23,0,27.8s-13.2,14.3-13.2,14.3l-9.3-47.5l2-50.3L-442.1,891.8z"/>
<path class="st8" d="M-434.7,855v46.7L-443,938c0,0-2.7,87.7-0.3,98.3s-8,20.7-8,20.7s-6,0.7-6,5.3s-10,18-10,18l0.3,26
	c0,0,4.3,48.7-2.3,58c-6.7,9.3,2.3,10.7,2.3,10.7c-8.3,27.3-48.3,21-51.9,18c-3.6-3,0-62,0-62s8.9-90,15.9-94s0.3-9,2.7-15
	s-2.3-22.3-2.3-22.3s-2-19.3-7-28.7s-4.3-35-4.3-35s-14-18.7-18.2-26c-4.2-7.3-6.8-26.3-5.8-40.7c0.7-9.7,5.8-23.8,9-31.9
	c1.5-3.9,2.7-6.4,2.7-6.4l1,0.3l54.6,14.3L-434.7,855z"/>
<path class="st4" d="M-429.6,632c-5.2,1.5-10.1,6.6-14.4,12.7h-1.1c-12.8,0-24.6-6.8-31-17.9c-1.3-2.3-2.4-4.7-3.1-7.2
	c3.1-7.8,5.4-14.7,5.4-14.7S-413.9,627.5-429.6,632z"/>
<path class="st3" d="M-409.4,607c0,19.7-15.9,35.8-35.7,35.8c-19.7,0-35.8-15.9-35.8-35.7c0-6.2,1.6-12.3,4.6-17.6
	c1.1-1.9,2.3-3.8,3.8-5.5c2.4-2.8,5.1-5.2,8.2-7.2c16.7-10.6,38.8-5.7,49.3,11c3.2,5,5.1,10.7,5.5,16.6
	C-409.4,605.3-409.4,606.2-409.4,607z"/>
<path class="st4" d="M-439.4,692.6l-0.1,1.1l-16.6-26c-1.7,4.1-2.7,6.9-2.7,6.9s-39.5-29.7-33.3-31.7c2.1-0.7,4.9-5.2,7.6-10.8
	l0.3-0.7c2.9,8.6,19.8,25.9,26.8,32.8c0.8,0.8,1.5,1.5,2,1.9l1.1,1l0.6,0.6C-451.2,670.2-440.5,681.8-439.4,692.6z"/>
<path class="st5" d="M-427,780.8l-1.8,58.6l-0.3,10.4c0,0-21.6-2-41.7-4.2c-16.2-1.8-31.5-3.7-33.8-4.8c-3-1.4-9.4-2.5-14.5-3.2
	c-3.9-0.5-7-0.8-7-0.8s-1.2,0.3-2.9,0.7c-3.9,0.7-10.6,1.3-14.6-2.2c-5-4.4,8.2-20.3,11.5-24.2l0.7-0.8l-1.3-11.5l-3.3-30
	c0,0-2-17.3-5-26.5c-0.8-2.6-1.4-5.3-1.7-8c-1.1-8.4-0.5-17,1.7-25.3c1-3.5,1.6-7.1,1.8-10.7c0.5-9.3,28.8-45,35.8-48.3
	c3.1-1.5,5.7-4,7.2-7.1c0.5-1,0.9-2,1.1-3.1c3-13,10.6-7.8,10.6-7.8c1.8,10.2,30.2,37.1,30.2,37.1l0.6,0.6
	c2.8,2.9,15.3,16.4,14.4,27.9c-0.2,4.3,0.5,8.6,1.9,12.6c5.8,18.1,9.1,37,9.9,56L-427,780.8z"/>
<path class="st4" d="M-467.1,711.3c0,0-7,17-12.3,19.8S-464.6,736.8-467.1,711.3z"/>
<path class="st4" d="M-461.9,743c0,0-16,2-16,5S-461.9,743-461.9,743z"/>
<path class="st4" d="M-445.1,762.5c0,0-23.3,49.5-29.8,51S-445.1,762.5-445.1,762.5z"/>
<path class="st4" d="M-454.8,671.6L-474,680l-23.2-35.1c0.5-1,0.9-2,1.1-3.1c3-13,10.6-7.8,10.6-7.8c1.8,10.2,30.2,37.1,30.2,37.1
	L-454.8,671.6z"/>
<path class="st5" d="M-453.8,669.6L-473,678l-23.2-35.1c0.5-1,0.9-2,1.1-3.1c3-13,10.6-7.8,10.6-7.8c1.8,10.2,30.2,37.1,30.2,37.1
	L-453.8,669.6z"/>
<path class="st4" d="M-429.1,849.8c0,0-21.6-2-41.7-4.2l36.1,9.5v11c-1.6,1.4-3,2.2-3.8,1.8c-4.2-1.8-38.1-7.3-38.1-7.3
	s-19.7-10-41-22c-0.5-0.3-1-0.6-1.5-0.9c-2.5-1.7-4.6-3.8-6.3-6.3c-3.9-5.7-5.9-13-6.7-20.2c-0.5-4.1-0.6-8.2-0.5-12.4
	c0.1-4.7,0.5-9.4,1.3-14c-2.1-17.9-3.1-36-3-54c0.3-28,26.5-38,26.5-38c48.3-4.3,33.3,73.8,33.3,73.8s-2.8,22-3.5,24.3
	s-3.5,6-3.1,11.3s9.6,11.5,9.6,11.5s9,4.2,12.7,10.5c2.7,4.6,20.2,10.9,30.1,15.3L-429.1,849.8z"/>
<path class="st4" d="M-412.9,584.8c0,1.6-0.3,3.3-1,4.8c-0.5,1.2-1.1,2.4-1.8,3.6c-1.1,2.1-2.5,4-4.4,5.4c-2.3,1.7-5.2,2.1-8,2.8
	s-5.6,1.7-7.2,4.1c-0.9,1.5-1.4,3.2-1.7,4.9c-0.3,1.7-1,3.3-2,4.7c-1.1,1.4-3,1.9-4.7,1.1c-0.8-0.6-1.5-1.4-1.8-2.3
	c-1.1-2.6-1.4-5.4-1.9-8.2c-0.5-2.8-1.1-5.6-2.8-7.8c-1.7-2.2-4.7-3.7-7.4-2.8c-1.8,0.7-3.3,2.1-4,3.9c-0.7,1.8-1.2,3.6-1.5,5.5
	c-1.2,6.8-2.7,13.5-4.4,20.2c-0.1,0.3-0.2,0.5-0.3,0.8c-0.3,0.3-0.6,0.4-1,0.4c-2.2,0.3-4.4-1.3-6.6-1.1c-0.2,0-0.5,0.1-0.7,0.1
	c-7.5-13-6-29.3,3.6-40.8l0.2-0.1c1.5-0.5,2.9-1.4,4-2.5c1.4-1.4,2.8-3,4-4.6l0.8-1c2.3-2.8,4.9-5.3,7.8-7.4
	c0.8-0.6,1.7-1.1,2.7-1.4c0.8-0.2,1.7-0.2,2.5-0.1c3.5,0.4,6.9,0.5,10.4,0.4c2.4-0.4,4.9-0.6,7.3-0.7c6.3,0.2,11.7,4.6,15.7,9.5
	C-415,578.7-413.1,581.5-412.9,584.8z"/>
<path class="st6" d="M-480.9,590.5c-1.4,2.3-3.9,3.8-4.8,6.3c-1.4,3.6,1,8.1-1.2,11.4c-0.7,1.1-1.9,1.9-2.3,3.2
	c-0.7,2.1,1.2,4.4,0.7,6.5c-0.5,2.2-3.3,4-2.6,6.1c0.4,0.9,1.2,1.6,2.2,2c1.5,0.9,3.3,1.3,5,1.1c2.7-0.5,4.8-3.1,7.5-3.3
	c2.3-0.2,4.4,1.4,6.6,1.1c0.4,0,0.7-0.2,1-0.4c0.2-0.2,0.3-0.5,0.3-0.8c1.7-6.7,3.1-13.4,4.4-20.2c0.3-1.9,0.8-3.8,1.5-5.5
	c0.8-1.8,2.2-3.2,4-3.9c2.7-0.9,5.7,0.6,7.4,2.8s2.4,5.1,2.8,7.9c0.5,2.8,0.8,5.6,1.9,8.2c0.3,1,1,1.8,1.8,2.3
	c1.5,0.9,3.5,0.2,4.7-1.1c1.1-1.4,1.7-3,2-4.8c0.3-1.7,0.8-3.4,1.7-4.9c1.6-2.4,4.5-3.4,7.2-4.1c2.8-0.7,5.7-1.1,8-2.8
	c1.8-1.5,3.3-3.3,4.4-5.4c1.5-2.6,2.9-5.4,2.7-8.4c-0.1-3.2-2-6.1-4.1-8.6c-4-4.9-9.4-9.4-15.7-9.5c-2.4,0.1-4.9,0.3-7.3,0.7
	c-3.5,0.2-7,0-10.4-0.4c-0.8-0.1-1.7-0.1-2.5,0.1c-1,0.3-1.9,0.8-2.6,1.4c-2.9,2.2-5.5,4.6-7.8,7.4c-1.5,2-3.1,3.8-4.8,5.6
	c-1.1,1.1-2.5,2-4,2.5c-1,0.3-2,0.1-3,0.4C-479.1,584.4-479.5,588.2-480.9,590.5z"/>
<path class="st4" d="M-384.6,617.7c-8,1.5-14.6-5-18.3-9.7c-1.1-1.4-2.2-2.9-3.1-4.5l27.5,5.2l1.1,0.2
	C-377.4,608.8-372.4,615.4-384.6,617.7z"/>
<g class="st7">
	<path d="M-488.5,615c0.1-1.3-0.1-2.6-0.6-3.8c0,0.1-0.1,0.2-0.1,0.3c-0.4,1.3,0.1,2.7,0.5,4.1C-488.6,615.4-488.6,615.2-488.5,615z
		"/>
	<path d="M-486.1,598.6c-0.1,1.4-0.1,2.8,0.1,4.2C-485.9,601.4-486,600-486.1,598.6z"/>
	<path d="M-416.7,589.3c-1.1,2.1-2.5,4-4.4,5.4c-2.3,1.6-5.2,2.1-8,2.8s-5.6,1.7-7.2,4.1c-0.9,1.5-1.4,3.2-1.7,4.9
		c-0.3,1.7-0.9,3.4-2,4.8c-1.1,1.3-3.2,2-4.7,1.1c-0.8-0.6-1.5-1.4-1.8-2.3c-1.1-2.6-1.4-5.4-1.9-8.2c-0.5-2.8-1.1-5.6-2.8-7.9
		c-1.7-2.2-4.7-3.7-7.4-2.8c-1.8,0.7-3.2,2.1-4,3.9c-0.7,1.8-1.2,3.6-1.5,5.5c-1.2,6.8-2.7,13.5-4.4,20.2c0,0.3-0.2,0.5-0.3,0.8
		c-0.3,0.3-0.6,0.4-1,0.4c-2.2,0.3-4.4-1.3-6.6-1.1c-2.8,0.2-4.8,2.9-7.5,3.3c-1.7,0.2-3.5-0.2-5-1.1c-0.7-0.3-1.3-0.7-1.8-1.3
		c-0.5,0.7-0.6,1.5-0.4,2.3c0.4,0.9,1.2,1.7,2.2,2c1.5,0.9,3.3,1.3,5,1.1c2.7-0.4,4.8-3.1,7.5-3.3c2.3-0.2,4.4,1.4,6.6,1.1
		c0.4,0,0.7-0.2,1-0.4c0.2-0.2,0.3-0.5,0.3-0.8c1.7-6.7,3.1-13.4,4.4-20.2c0.3-1.9,0.8-3.8,1.5-5.5c0.8-1.8,2.2-3.2,4-3.9
		c2.7-0.9,5.7,0.6,7.4,2.8c1.7,2.2,2.4,5.1,2.8,7.8s0.8,5.6,1.9,8.2c0.3,1,1,1.8,1.8,2.3c1.5,0.9,3.5,0.2,4.7-1.1
		c1.1-1.4,1.7-3,2-4.8c0.3-1.7,0.8-3.4,1.7-4.9c1.6-2.4,4.5-3.4,7.2-4.1c2.8-0.7,5.7-1.1,8-2.8c1.8-1.5,3.3-3.3,4.4-5.4
		c1.5-2.6,2.9-5.4,2.7-8.3c0-0.4-0.1-0.8-0.1-1.1C-414.5,585.1-415.4,587.3-416.7,589.3z"/>
</g>
<path class="st4" d="M-413.9,589.6c2.6,4.6,4.1,9.6,4.5,14.8c-8.9-5-17.3-10.5-21.5-12.4c-7.4-3.3-34.9-2.8-45.3-2.5
	c1.1-1.9,2.3-3.8,3.8-5.5c2.4-2.8,5.1-5.2,8.3-7.2c16.7-10.6,38.8-5.6,49.4,11C-414.5,588.4-414.2,589-413.9,589.6L-413.9,589.6z"/>
<path class="st4" d="M-382.1,613.4c-4.8,1.5-12.7-1.4-20.8-5.5c-1.1-1.4-2.2-2.9-3.1-4.5l27.5,5.2
	C-376.7,609.8-376.2,611.6-382.1,613.4z"/>
<path class="st8" d="M-443,554.9c0,0-26.3-1.5-33.6,12.8l-1.2,12.6l-2-0.2l-0.4,8.6c0,0,40.1-1.8,49.3,2.4s37.5,24.9,48.9,21.4
	s-1-6.8-1-6.8s-15.6-6.6-15.6-11.8S-402.6,561.2-443,554.9z"/>
<path class="st4" d="M-493.6,1023.1c0,0,16.8,16.2,24,15C-469.6,1038.1-490.1,1036.4-493.6,1023.1z"/>
<path class="st4" d="M-497.1,1030.6c0,0,1.5,8.4,5.5,7.5C-487.6,1037.4-497.1,1030.6-497.1,1030.6z"/>
<path class="st4" d="M-470.9,1170.4c0,0-23.8,18.5-19.8,19S-470.9,1170.4-470.9,1170.4z"/>
<polygon class="st10" points="-439,803.2 -362,790.7 -362,863.6 -435.2,859.7 "/>
<polygon class="st11" points="-439,803.2 -362,790.7 -362,863.6 -435.2,859.7 "/>
<polygon class="st10" points="-362,790.7 -269.7,797.6 -274.8,861 -362,863.6 "/>
<polygon class="st4" points="-362,790.7 -269.7,797.6 -274.8,861 -362,863.6 "/>
<polygon class="st10" points="-333.6,768.4 -362,790.7 -269.7,797.6 -254.6,774.8 "/>
<polygon class="st12" points="-466.9,778.9 -397.6,770.5 -362,790.7 -439,803.2 "/>
<polygon class="st10" points="-345.2,809.6 -345.2,909.3 -381.2,905.6 -396.9,904 -401.7,903.5 -417.4,901.8 -439,899.6 -439,803.2 
	-362,808.4 "/>
<polygon class="st10" points="-269.7,797.6 -269.7,894.8 -298.6,900.3 -312.7,903 -345.2,909.3 -345.2,809.6 "/>
<polygon class="st11" points="-269.7,797.6 -269.7,894.8 -298.6,900.3 -312.7,903 -345.2,909.3 -345.2,809.6 "/>
<polygon class="st12" points="-466.9,824.2 -439,803.2 -345.2,809.6 -359,832.9 "/>
<polygon class="st13" points="-466.9,824.2 -439,803.2 -345.2,809.6 -359,832.9 "/>
<polygon class="st10" points="-269.7,797.6 -345.2,809.6 -320.6,831.6 -239.8,818 "/>
<polygon class="st13" points="-269.7,797.6 -345.2,809.6 -320.6,831.6 -239.8,818 "/>
<polygon class="st13" points="-298.6,900.3 -312.7,903 -312.7,882.3 -299.5,878.9 "/>
<polygon class="st13" points="-381.2,891.8 -381.2,905.6 -396.9,904 -396.9,891.8 "/>
<polygon class="st13" points="-401.7,896.2 -401.7,903.5 -417.4,901.8 -417.4,896.2 "/>
<path class="st4" d="M-354.6,884.5c-10.8,13.8-46.3,4.3-46.3,4.3l-26.4-27.5l-3.6-3.7l7-13c0,0,2,0.7,5.3,1.8
	C-400.8,852.5-345.6,873-354.6,884.5z"/>
<path class="st3" d="M-355.6,882.5c-10.8,13.8-46.3,4.3-46.3,4.3l-26.4-27.5l-3.6-3.7l7-13c0,0,2,0.7,5.3,1.8
	C-401.8,850.5-346.6,871-355.6,882.5z"/>
<path class="st4" d="M-419.5,844.3c-1.5,4.2-5.2,10.4-8.8,14.9l-3.6-3.7l7-13C-424.9,842.5-422.8,843.2-419.5,844.3z"/>
<path class="st5" d="M-506.9,688.8c0,0-26.2,10-26.5,38c-0.1,18,0.9,36.1,3,54c0,0-7.5,41.8,13.8,53.8c21.2,12,41,22,41,22
	s34,5.5,38.1,7.3s18.7-20.8,16.4-24.5s-33.2-13-36.8-19.3s-12.7-10.5-12.7-10.5s-9.2-6.3-9.6-11.5s2.4-9,3.1-11.3s3.6-24.3,3.6-24.3
	S-458.6,684.5-506.9,688.8z"/>
<path class="st4" d="M-494.9,781.5c0,0-35.5,4-32.7,16.5C-527.6,798-514.1,785.4-494.9,781.5z"/>
<path class="st4" d="M-494.9,786.5c0,0-20.1,14.8-16.5,15.8S-494.9,786.5-494.9,786.5z"/>
<path class="st4" d="M-485.9,792.5c0,0-5.8,10.3-2.5,9.8C-485.1,801.8-485.9,792.5-485.9,792.5z"/>
<path class="st10" d="M-116.2,568.3c0,0-38-2.3-33.6,24.4c0,0-0.9,4.7,3.4,6.9c0,0,0.1-2,3.9-1.3c1.4,0.2,2.8,0.3,4.1,0.2
	c1.9-0.1,3.6-0.9,5.1-2.1l0,0c0,0,10.7-4.4,14.8-21.9c0,0,3.1-3.8,3-4.8l-6.4,2.8c0,0,2.2,4.6,0.5,8.5c0,0-0.2-8.3-1.4-8.1
	c-0.3,0-3.3,1.6-3.3,1.6s3.8,8.1,0.9,13.9c0,0,1.1-9.9-2.1-13.3l-4.5,2.6c0,0,4.4,8.3,1.4,15.1c0,0,0.8-10.4-2.4-14.5l-4.1,3.2
	c0,0,4.2,8.2,1.6,13.9c0,0-0.3-12.1-2.5-13.1c0,0-3.6,3.2-4.1,4.5c0,0,2.8,6,1.1,9.1c0,0-1.1-8.1-2-8.1c0,0-3.6,5.4-3.9,9
	c0.2-3.4,1.2-6.7,3.1-9.5c-2.1,0.4-4,1.4-5.5,2.8c0,0,0.5-3.8,6.3-4.1c0,0,3-4.1,3.7-4.3c0,0-5.8-0.5-9.3,1.1c0,0,3.1-3.6,10.3-2
	l4-3.3c0,0-7.6-1-10.8,0.1c0,0,3.7-3.2,11.9-0.9l4.4-2.6c0,0-6.5-1.4-10.3-0.9c0,0,4.1-2.2,11.6,0.2l3.2-1.4c0,0-4.7-0.9-6.1-1.1
	s-1.5-0.5-1.5-0.5c3-0.5,6.1-0.2,8.9,1C-122.8,571.1-116.1,568.7-116.2,568.3z"/>
<path class="st14" d="M-0.8,701.6c0,0-38-2.3-33.6,24.4c0,0-0.9,4.7,3.4,6.8c0,0,0.1-2,3.9-1.3c1.4,0.2,2.8,0.3,4.1,0.2
	c1.8-0.1,3.6-0.9,5-2.1l0,0c0,0,10.7-4.4,14.9-21.9c0,0,3.1-3.8,3-4.8l-6.4,2.7c0,0,2.2,4.6,0.5,8.5c0,0-0.2-8.3-1.4-8.1
	c-0.3,0-3.3,1.6-3.3,1.6s3.8,8.1,0.9,13.9c0,0,1.1-9.9-2.1-13.3l-4.5,2.6c0,0,4.4,8.3,1.4,15.1c0,0,0.8-10.4-2.4-14.5l-4.1,3.2
	c0,0,4.1,8.2,1.6,13.8c0,0-0.3-12.1-2.5-13.1c0,0-3.6,3.2-4.1,4.5c0,0,2.8,6,1.1,9.1c0,0-1.1-8.1-2-8.1c0,0-3.6,5.4-3.9,9
	c0.2-3.4,1.2-6.7,3.1-9.5c-2.1,0.4-4,1.4-5.5,2.8c0,0,0.6-3.8,6.3-4.1c0,0,3-4.1,3.7-4.3c0,0-5.8-0.5-9.3,1.1c0,0,3.1-3.6,10.3-2
	l4-3.3c0,0-7.6-1-10.8,0.1c0,0,3.7-3.2,11.9-0.9l4.4-2.6c0,0-6.5-1.4-10.3-0.9c0,0,4.1-2.2,11.6,0.2l3.2-1.4c0,0-4.7-0.9-6.1-1.1
	c-1.4-0.2-1.5-0.5-1.5-0.5c3-0.5,6.1-0.2,8.9,1C-7.4,704.5-0.6,702-0.8,701.6z"/>
<path class="st14" d="M-231.6,677.9c0,0,8.8-37.1-18.3-37.2c0,0-4.5-1.7-7.3,2.2c0,0,1.9,0.4,0.6,4.1c-0.5,1.3-0.8,2.6-0.9,4
	c-0.2,1.9,0.2,3.7,1.2,5.3l0,0c0,0,2.5,11.3,19,18.4c0,0,3.2,3.7,4.2,3.7l-1.6-6.8c0,0-4.9,1.4-8.4-1c0,0,8.2,1.2,8.2,0
	c0-0.3-1-3.6-1-3.6s-8.6,2.3-13.9-1.5c0,0,9.6,2.8,13.5,0.2l-1.8-4.9c0,0-9,2.9-15.2-1.2c0,0,10.2,2.5,14.7,0.1l-2.5-4.6
	c0,0-8.8,2.7-13.9-0.8c0,0,12,1.7,13.3-0.2c0,0-2.5-4.1-3.7-4.8c0,0-6.4,1.8-9.2-0.5c0,0,8.2,0.3,8.3-0.5c0,0-4.7-4.4-8.2-5.4
	c3.3,0.8,6.4,2.4,8.9,4.7c0-2.1-0.7-4.1-1.9-5.9c0,0,3.6,1.2,3,7c0,0,3.5,3.6,3.6,4.4c0,0,1.5-5.6,0.5-9.3c0,0,3,3.6,0.2,10.5
	l2.6,4.5c0,0,2.3-7.3,1.7-10.7c0,0,2.5,4.2-1.2,11.9l1.8,4.8c0,0,2.5-6.1,2.6-10c0,0,1.5,4.4-2.2,11.4l0.9,3.3c0,0,1.7-4.5,2.1-5.9
	c0.4-1.3,0.8-1.3,0.8-1.3c0,3-0.9,6-2.5,8.6C-233.4,671-232.1,678-231.6,677.9z"/>
<path class="st14" d="M-314.8,690.6c0,0-30.5-22.8-41.4,1.9c0,0-3.3,3.5-0.9,7.6c0,0,1.1-1.6,4,1.1c1,0.9,2.1,1.8,3.3,2.4
	c1.6,0.9,3.5,1.3,5.4,1l0,0c0,0,11.4,2.2,24.4-10.1c0,0,4.7-1.5,5.1-2.4l-6.9-1.2c0,0-0.7,5.1-4.3,7.3c0,0,4.4-7.1,3.3-7.6
	c-0.2-0.1-3.7-0.5-3.7-0.5s-1.3,8.8-6.9,12.2c0,0,6.4-7.7,5.6-12.3l-5.2-0.3c0,0-0.9,9.4-7.1,13.4c0,0,6.4-8.3,6-13.4l-5.2,0.4
	c0,0-1,9.1-6.3,12.5c0,0,6.4-10.3,5.1-12.3c0,0-4.7,0.7-5.9,1.5c0,0-0.9,6.5-4.1,8.2c0,0,3.5-7.4,2.8-7.9c0,0-5.9,2.5-8.3,5.4
	c2-2.7,4.7-4.9,7.8-6.3c-1.9-0.8-4.1-1-6.1-0.6c0,0,2.5-2.9,7.6,0c0,0,4.7-1.8,5.5-1.5c0,0-4.5-3.6-8.3-4.2c0,0,4.5-1.3,9.7,4
	l5.2-0.5c0,0-5.8-5-9.1-5.8c0,0,4.8-0.6,10.4,5.8l5.1,0.2c0,0-4.6-4.7-8.1-6.4c0,0,4.6,0.4,9.6,6.5l3.4,0.5c0,0-3.5-3.4-4.5-4.3
	s-0.9-1.3-0.9-1.3c2.8,1.2,5.2,3.2,6.9,5.7C-321.9,689.4-315,691-314.8,690.6z"/>
<path class="st14" d="M-213.2,478.5c0,0-30.5-22.8-41.4,1.9c0,0-3.3,3.5-0.9,7.6c0,0,1.1-1.6,4,1.1c1,0.9,2.1,1.8,3.3,2.4
	c1.6,0.9,3.5,1.3,5.4,1l0,0c0,0,11.4,2.2,24.4-10.1c0,0,4.7-1.5,5.1-2.4l-6.9-1.2c0,0-0.7,5.1-4.3,7.3c0,0,4.4-7.1,3.3-7.6
	c-0.2-0.1-3.7-0.5-3.7-0.5s-1.3,8.8-6.9,12.2c0,0,6.4-7.7,5.6-12.3l-5.2-0.3c0,0-0.9,9.4-7.1,13.4c0,0,6.4-8.3,6-13.4l-5.2,0.4
	c0,0-1.1,9.1-6.3,12.5c0,0,6.4-10.3,5.1-12.3c0,0-4.7,0.7-5.9,1.4c0,0-0.9,6.5-4.1,8.2c0,0,3.5-7.4,2.8-7.9c0,0-5.9,2.5-8.3,5.4
	c2-2.7,4.7-4.9,7.8-6.3c-1.9-0.8-4.1-1-6.1-0.6c0,0,2.5-2.9,7.6,0c0,0,4.7-1.8,5.5-1.5c0,0-4.5-3.6-8.3-4.2c0,0,4.5-1.3,9.7,4
	l5.2-0.5c0,0-5.8-5-9.1-5.8c0,0,4.8-0.6,10.4,5.8l5.1,0.2c0,0-4.6-4.7-8.1-6.4c0,0,4.6,0.4,9.6,6.5l3.4,0.5c0,0-3.5-3.3-4.5-4.2
	c-1.1-0.9-0.9-1.2-0.9-1.2c2.8,1.2,5.2,3.2,6.9,5.7C-220.4,477.3-213.4,478.8-213.2,478.5z"/>
<path class="st14" d="M-96.6,507.4c0,0-12.2-36.1-35.2-21.9c0,0-4.7,1-5.1,5.7c0,0,1.8-0.7,2.7,3.1c0.3,1.4,0.8,2.7,1.4,3.9
	c0.8,1.7,2.2,3,3.8,3.9l0,0c0,0,8.1,8.3,25.9,5.5c0,0,4.7,1.4,5.5,0.9l-5-4.9c0,0-3.5,3.8-7.7,3.6c0,0,7.6-3.3,7-4.4
	c-0.1-0.2-2.7-2.5-2.7-2.5s-6.1,6.5-12.6,6.1c0,0,9.6-2.7,11.6-7l-4.1-3.2c0,0-6.1,7.2-13.5,7c0,0,10-3.2,12.5-7.6l-4.5-2.6
	c0,0-6,6.9-12.2,6.7c0,0,11.1-4.9,11.2-7.2c0,0-4.3-2.1-5.7-2.1c0,0-4.5,4.9-8,4.4c0,0,7.1-4,6.8-4.9c0,0-6.3-1.3-9.8-0.3
	c3.2-1.1,6.7-1.4,10-0.8c-1.1-1.8-2.8-3.2-4.7-4c0,0,3.7-0.9,6.2,4.3c0,0,4.9,1.2,5.4,1.8c0,0-1.7-5.5-4.5-8.2c0,0,4.5,1.5,5.7,8.8
	l4.6,2.5c0,0-1.9-7.4-4.2-10c0,0,4.3,2.2,5.3,10.7l4.1,3.1c0,0-1.1-6.5-3.1-9.9c0,0,3.6,2.9,4.2,10.8l2.5,2.4c0,0-0.9-4.7-1.3-6.1
	c-0.4-1.3-0.1-1.4-0.1-1.4c1.6,2.6,2.4,5.6,2.4,8.6C-101.8,502.5-97,507.6-96.6,507.4z"/>
<path class="st14" d="M-176.2,509.2c0,0-37.9-4.2-34.8,22.7c0,0-1.1,4.7,3,7c0,0,0.2-2,4-1.1c1.4,0.3,2.7,0.4,4.1,0.4
	c1.9,0,3.7-0.7,5.2-1.8l0,0c0,0,10.9-3.9,16-21.1c0,0,3.3-3.6,3.2-4.6l-6.5,2.4c0,0,2,4.7,0,8.5c0,0,0.2-8.3-1-8.2
	c-0.3,0-3.4,1.4-3.4,1.4s3.4,8.3,0.2,14c0,0,1.6-9.9-1.4-13.4l-4.7,2.4c0,0,4,8.5,0.7,15.2c0,0,1.3-10.4-1.6-14.6l-4.3,3
	c0,0,3.7,8.4,0.9,13.9c0,0,0.3-12.1-1.8-13.2c0,0-3.7,3-4.3,4.2c0,0,2.5,6.1,0.6,9.1c0,0-0.7-8.1-1.5-8.2c0,0-3.8,5.2-4.4,8.8
	c0.3-3.4,1.6-6.6,3.6-9.4c-2.1,0.3-4,1.2-5.6,2.5c0,0,0.7-3.8,6.5-3.8c0,0,3.2-3.9,4-4.1c0,0-5.7-0.8-9.3,0.6c0,0,3.3-3.4,10.4-1.4
	l4.2-3.1c0,0-7.6-1.5-10.8-0.5c0,0,3.9-3,11.9-0.3l4.5-2.4c0,0-6.4-1.7-10.3-1.4c0,0,4.2-2,11.6,0.8l3.2-1.3c0,0-4.7-1.2-6.1-1.4
	s-1.4-0.6-1.4-0.6c3-0.3,6.1,0.2,8.8,1.4C-182.9,511.7-176.2,509.6-176.2,509.2z"/>
<path class="st15" d="M155.4,803.3c0,0-37.9-4.2-34.7,22.6c0,0-1.1,4.7,3,7c0,0,0.2-2,4-1.1c1.4,0.3,2.7,0.4,4.1,0.4
	c1.9,0,3.7-0.7,5.2-1.8l0,0c0,0,10.9-3.9,16-21.1c0,0,3.3-3.7,3.2-4.6l-6.5,2.4c0,0,2,4.7,0,8.5c0,0,0.2-8.3-1-8.2
	c-0.3,0-3.4,1.4-3.4,1.4s3.4,8.3,0.2,14c0,0,1.6-9.9-1.4-13.4l-4.7,2.4c0,0,4,8.5,0.7,15.2c0,0,1.3-10.4-1.6-14.6l-4.3,3
	c0,0,3.7,8.4,0.9,13.9c0,0,0.3-12.1-1.8-13.2c0,0-3.7,3-4.3,4.2c0,0,2.5,6.1,0.6,9.2c0,0-0.7-8.1-1.5-8.2c0,0-3.8,5.2-4.4,8.8
	c0.3-3.4,1.6-6.6,3.6-9.4c-2.1,0.3-4,1.2-5.6,2.5c0,0,0.7-3.8,6.5-3.8c0,0,3.2-3.9,4-4.1c0,0-5.7-0.8-9.3,0.6c0,0,3.3-3.4,10.4-1.4
	l4.2-3.1c0,0-7.5-1.4-10.8-0.4c0,0,3.9-3,11.9-0.3l4.5-2.4c0,0-6.4-1.7-10.3-1.4c0,0,4.2-2,11.6,0.8l3.2-1.3c0,0-4.7-1.2-6.1-1.4
	c-1.4-0.2-1.4-0.6-1.4-0.6c3-0.4,6.1,0.1,8.8,1.4C148.7,806,155.5,803.8,155.4,803.3z"/>
<path class="st14" d="M213.3,838.7c0,0-37.9-4.2-34.8,22.6c0,0-1.1,4.7,3,7c0,0,0.2-2,4-1.1c1.3,0.3,2.7,0.4,4.1,0.4
	c1.9,0,3.7-0.7,5.1-1.8l0,0c0,0,10.9-3.9,15.9-21.1c0,0,3.3-3.7,3.2-4.6l-6.6,2.4c0,0,2,4.7,0,8.5c0,0,0.2-8.3-1-8.2
	c-0.3,0-3.4,1.4-3.4,1.4s3.4,8.3,0.2,14c0,0,1.6-9.9-1.4-13.4l-4.7,2.4c0,0,4,8.5,0.7,15.2c0,0,1.3-10.4-1.6-14.6l-4.3,3
	c0,0,3.7,8.4,0.9,13.9c0,0,0.3-12.2-1.8-13.2c0,0-3.7,3-4.3,4.2c0,0,2.5,6.1,0.6,9.2c0,0-0.7-8.1-1.6-8.2c0,0-3.8,5.2-4.4,8.8
	c0.3-3.4,1.6-6.6,3.6-9.4c-2.1,0.3-4,1.2-5.6,2.5c0,0,0.8-3.8,6.6-3.8c0,0,3.2-3.9,4-4.1c0,0-5.7-0.8-9.3,0.6c0,0,3.3-3.4,10.4-1.4
	l4.2-3.1c0,0-7.5-1.4-10.8-0.4c0,0,3.9-3,11.9-0.3l4.5-2.4c0,0-6.4-1.7-10.3-1.4c0,0,4.2-2,11.6,0.8l3.2-1.3c0,0-4.7-1.2-6.1-1.4
	c-1.4-0.2-1.4-0.6-1.4-0.6c3-0.3,6.1,0.2,8.8,1.4C206.6,841.3,213.4,839.1,213.3,838.7z"/>
<path class="st14" d="M84.7,540.7c0,0-30.5-22.8-41.4,1.9c0,0-3.3,3.5-0.9,7.6c0,0,1.1-1.6,4,1.1c1,0.9,2.1,1.8,3.3,2.4
	c1.6,0.9,3.5,1.3,5.4,1l0,0c0,0,11.4,2.2,24.5-10.1c0,0,4.7-1.5,5.1-2.4l-6.9-1.2c0,0-0.7,5.1-4.3,7.3c0,0,4.4-7.1,3.3-7.6
	c-0.2-0.1-3.7-0.5-3.7-0.5s-1.3,8.8-6.9,12.2c0,0,6.4-7.7,5.6-12.3l-5.2-0.3c0,0-0.9,9.4-7.1,13.4c0,0,6.4-8.3,6-13.4l-5.2,0.4
	c0,0-1,9.1-6.3,12.5c0,0,6.4-10.3,5.1-12.3c0,0-4.7,0.7-5.9,1.5c0,0-0.9,6.5-4.1,8.2c0,0,3.5-7.4,2.8-7.9c0,0-5.9,2.5-8.3,5.4
	c2-2.7,4.7-4.9,7.8-6.3c-1.9-0.8-4.1-1-6.1-0.6c0,0,2.5-2.9,7.6,0.1c0,0,4.7-1.8,5.5-1.6c0,0-4.5-3.6-8.3-4.2c0,0,4.5-1.3,9.7,4
	l5.2-0.5c0,0-5.8-5-9.1-5.8c0,0,4.8-0.6,10.4,5.8l5.1,0.2c0,0-4.6-4.7-8.1-6.4c0,0,4.6,0.4,9.6,6.5l3.4,0.5c0,0-3.5-3.4-4.5-4.3
	c-1.1-0.9-0.9-1.2-0.9-1.2c2.8,1.2,5.2,3.2,6.9,5.7C77.7,539.5,84.6,541.1,84.7,540.7z"/>
<path class="st14" d="M108.3,705.5c0,0-10.5-36.6-34.2-23.5c0,0-4.7,0.7-5.3,5.5c0,0,1.9-0.6,2.5,3.2c0.2,1.4,0.6,2.7,1.2,4
	c0.7,1.7,2,3.2,3.7,4.1l0,0c0,0,7.7,8.6,25.6,6.7c0,0,4.6,1.6,5.5,1.2l-4.7-5.1c0,0-3.6,3.6-7.8,3.3c0,0,7.8-3,7.2-4.1
	c-0.1-0.2-2.6-2.6-2.6-2.6s-6.3,6.3-12.8,5.5c0,0,9.7-2.3,11.9-6.4l-4-3.4c0,0-6.4,6.9-13.8,6.4c0,0,10.1-2.8,12.9-7.1l-4.4-2.8
	c0,0-6.3,6.7-12.5,6.2c0,0,11.3-4.4,11.5-6.7c0,0-4.2-2.3-5.6-2.4c0,0-4.7,4.7-8.2,4.1c0,0,7.3-3.7,7-4.6c0,0-6.2-1.6-9.8-0.7
	c3.3-1,6.7-1.1,10-0.3c-1.1-1.8-2.6-3.3-4.5-4.2c0,0,3.8-0.8,6,4.6c0,0,4.8,1.4,5.3,2.1c0,0-1.5-5.6-4.1-8.4c0,0,4.4,1.7,5.3,9.1
	l4.5,2.7c0,0-1.6-7.5-3.7-10.1c0,0,4.2,2.4,4.8,10.9l4,3.3c0,0-0.8-6.6-2.6-10c0,0,3.4,3.1,3.7,11l2.4,2.5c0,0-0.7-4.8-1-6.1
	c-0.3-1.4,0-1.5,0-1.5c1.5,2.7,2.2,5.7,2,8.7C103.4,700.4,107.9,705.8,108.3,705.5z"/>
<path class="st14" d="M-126.1,788.1c0,0-20.4-32.2-39.4-12.9c0,0-4.3,2-3.6,6.8c0,0,1.7-1.1,3.3,2.4c0.6,1.2,1.4,2.4,2.3,3.5
	c1.2,1.4,2.8,2.5,4.7,2.9l0,0c0,0,9.8,6.1,26.5-0.8c0,0,4.9,0.3,5.6-0.4l-6-3.6c0,0-2.5,4.5-6.6,5.3c0,0,6.6-5,5.7-5.9
	c-0.2-0.2-3.3-1.8-3.3-1.8s-4.3,7.8-10.8,8.9c0,0,8.7-5,9.6-9.5l-4.8-2.1c0,0-4.2,8.5-11.4,10c0,0,8.9-5.5,10.3-10.4l-5-1.4
	c0,0-4.2,8.2-10.3,9.4c0,0,9.6-7.4,9.1-9.7c0,0-4.7-1-6-0.7c0,0-3.2,5.8-6.8,6.2c0,0,5.9-5.6,5.4-6.4c0,0-6.4,0.3-9.6,2.1
	c2.9-1.8,6.1-2.9,9.5-3.1c-1.5-1.4-3.4-2.4-5.5-2.8c0,0,3.4-1.8,7,2.7c0,0,5,0,5.7,0.5c0,0-3-5-6.3-6.9c0,0,4.7,0.4,7.6,7.2l5,1.3
	c0,0-3.6-6.8-6.4-8.7c0,0,4.7,1.1,7.7,9.1l4.7,2c0,0-2.7-6-5.3-8.9c0,0,4.2,2,6.7,9.5l3,1.7c0,0-2-4.4-2.7-5.6
	c-0.7-1.2-0.4-1.5-0.4-1.5c2.2,2.1,3.7,4.8,4.4,7.8C-132.4,784.4-126.4,788.4-126.1,788.1z"/>
<path class="st10" d="M8.1,623.6c0,0-19.4-32.8-39-14.1c0,0-4.4,1.9-3.8,6.6c0,0,1.7-1.1,3.3,2.5c0.6,1.3,1.3,2.5,2.2,3.5
	c1.1,1.5,2.8,2.5,4.6,3l0,0c0,0,9.7,6.4,26.5,0c0,0,4.9,0.4,5.6-0.2l-5.9-3.8c0,0-2.6,4.4-6.8,5.1c0,0,6.8-4.8,5.9-5.7
	c-0.2-0.2-3.2-1.9-3.2-1.9s-4.6,7.6-11,8.6c0,0,8.8-4.7,9.9-9.2l-4.7-2.2c0,0-4.4,8.3-11.7,9.7c0,0,9.1-5.2,10.7-10.1l-4.9-1.6
	c0,0-4.5,8-10.6,9.1c0,0,9.9-7.1,9.4-9.4c0,0-4.6-1.2-6-0.9c0,0-3.3,5.7-6.9,6c0,0,6.1-5.4,5.6-6.2c0,0-6.4,0-9.7,1.8
	c2.9-1.8,6.2-2.7,9.6-2.8c-1.5-1.5-3.4-2.5-5.4-2.9c0,0,3.5-1.7,7,2.9c0,0,5,0.2,5.7,0.7c0,0-2.8-5-6.1-7.1c0,0,4.7,0.5,7.4,7.4
	l5,1.5c0,0-3.4-6.9-6.2-8.9c0,0,4.7,1.3,7.4,9.4l4.7,2.2c0,0-2.5-6.1-5-9c0,0,4.1,2.1,6.4,9.7l2.9,1.8c0,0-1.9-4.5-2.5-5.7
	S-2,612-2,612c2.1,2.2,3.5,4.9,4.2,7.9C2.1,619.9,7.9,624,8.1,623.6z"/>
<path class="st10" d="M-114.8,692.6c0,0,1-38.1-25.5-32.7c0,0-4.7-0.7-6.7,3.6c0,0,2,0,1.4,3.9c-0.2,1.4-0.2,2.8-0.1,4.1
	c0.2,1.9,1,3.6,2.3,5l0,0c0,0,4.8,10.5,22.4,14.1c0,0,3.9,3,4.9,2.8l-3-6.3c0,0-4.5,2.3-8.5,0.8c0,0,8.3-0.5,8.1-1.7
	c0-0.3-1.7-3.3-1.7-3.3s-7.9,4-13.9,1.4c0,0,10,0.8,13.3-2.5l-2.8-4.4c0,0-8.2,4.7-15.1,1.9c0,0,10.5,0.4,14.4-2.8l-3.3-4
	c0,0-8.1,4.4-13.8,2.1c0,0,12.1-0.7,13-2.9c0,0-3.3-3.5-4.6-4c0,0-5.9,3-9.1,1.4c0,0,8-1.3,8-2.2c0,0-5.5-3.4-9.2-3.6
	c3.4,0.1,6.7,1,9.7,2.8c-0.5-2-1.5-3.9-3-5.4c0,0,3.8,0.4,4.3,6.2c0,0,4.2,2.8,4.4,3.6c0,0,0.3-5.8-1.4-9.2c0,0,3.7,3,2.3,10.2
	l3.4,3.9c0,0,0.8-7.6-0.5-10.8c0,0,3.3,3.6,1.3,11.8l2.8,4.3c0,0,1.2-6.5,0.5-10.3c0,0,2.3,4,0.2,11.6l1.5,3.1c0,0,0.8-4.8,0.9-6.2
	s0.5-1.5,0.5-1.5c0.6,3,0.4,6.1-0.7,8.9C-117.9,686.1-115.2,692.7-114.8,692.6z"/>
<ellipse class="st0" cx="-71" cy="1172.2" rx="26.9" ry="4.5"/>
<ellipse class="st0" cx="-169.2" cy="1241.2" rx="26.9" ry="4.5"/>
<ellipse class="st0" cx="-676.9" cy="1205.8" rx="26.9" ry="4.5"/>
<ellipse class="st0" cx="35.1" cy="1236.7" rx="26.9" ry="4.5"/>
<ellipse class="st10" cx="63.1" cy="1179" rx="40.2" ry="6.8"/>
<path class="st10" d="M79.8,1167.8c1.8-1.5,3.2-3.5,3.8-5.8c0.5-2.3-0.5-5-2.7-5.9c-2.5-0.9-5.1,0.8-7.1,2.5s-4.3,3.7-6.9,3.3
	c2.7-2.5,4-6.2,3.2-9.8c-0.1-0.7-0.4-1.4-0.9-2c-1.4-1.5-3.8-0.8-5.5,0.3c-5.2,3.7-6.7,10.7-6.7,17.1c-0.5-2.3-0.1-4.7-0.1-7
	c0-2.3-0.7-5-2.7-6.2c-1.2-0.7-2.6-1-4-1c-2.3-0.1-5,0.2-6.5,1.9c-2,2.1-1.5,5.7,0.3,8c1.7,2.3,4.3,3.8,6.8,5.4
	c1.9,1.2,3.6,2.7,4.8,4.6c0.1,0.3,0.3,0.5,0.3,0.8h14.7C74,1172.4,77.1,1170.3,79.8,1167.8z"/>
<path class="st16" d="M-694.9,1184.7c0,0,15.3-0.5,20-3.8c4.6-3.3,23.6-7.2,24.8-1.9c1.2,5.3,23.1,26.3,5.7,26.4
	c-17.3,0.1-40.3-2.7-44.9-5.5C-694,1197.1-694.9,1184.7-694.9,1184.7z"/>
<path class="st17" d="M-644.1,1203.6c-17.3,0.1-40.3-2.7-44.9-5.5c-3.5-2.1-4.9-9.8-5.4-13.4h-0.5c0,0,1,12.4,5.6,15.2
	c4.6,2.8,27.6,5.7,44.9,5.5c5,0,6.7-1.8,6.6-4.5C-638.5,1202.5-640.4,1203.5-644.1,1203.6z"/>
</svg>
